<?xml version="1.0" standalone="no"?>
<!DOCTYPE svg PUBLIC "-//W3C//DTD SVG 20010904//EN"
 "http://www.w3.org/TR/2001/REC-SVG-20010904/DTD/svg10.dtd">
<svg version="1.0" xmlns="http://www.w3.org/2000/svg"
 width="401.941960pt" height="511.888069pt" viewBox="0 0 401.941960 511.888069"
 preserveAspectRatio="xMidYMid meet">
<metadata>
Created by potrace 1.12, written by Peter Selinger 2001-2015
</metadata>
<g transform="translate(-55.000000,511.888069) scale(0.100000,-0.100000)"
fill="#000000" stroke="none">
<path d="M4330 5113 c-205 -19 -566 -77 -780 -124 -291 -64 -557 -151 -775
-252 -101 -47 -258 -132 -296 -160 -9 -7 -63 -135 -121 -286 l-105 -273 -89
126 c-93 133 -112 148 -157 124 -47 -24 -274 -236 -377 -350 -282 -313 -466
-618 -586 -972 -19 -55 -34 -108 -34 -118 0 -9 22 -99 50 -200 27 -101 50
-186 50 -190 0 -4 -29 13 -63 37 -35 24 -76 49 -91 54 -36 14 -41 -1 -60 -159
-51 -433 -69 -830 -47 -1045 9 -78 8 -81 -24 -145 -96 -192 -167 -417 -187
-590 -12 -111 -6 -155 25 -174 24 -15 70 22 78 65 4 19 17 88 29 154 30 160
78 307 142 435 l53 105 110 2 c174 4 460 23 585 39 617 80 1224 333 1645 687
93 79 279 263 364 362 89 104 194 242 204 268 14 38 -11 63 -142 142 -73 43
-130 79 -129 80 2 1 116 53 253 115 138 62 258 122 269 134 46 53 185 374 239
556 116 387 179 810 203 1363 9 199 10 198 -115 195 -47 0 -102 -3 -121 -5z
m100 -230 c0 -302 -64 -750 -160 -1128 -57 -224 -186 -612 -214 -642 -6 -7
-152 -77 -325 -157 -173 -80 -318 -151 -323 -158 -4 -7 -8 -25 -8 -40 0 -33
20 -48 188 -148 67 -40 122 -76 122 -80 0 -15 -130 -173 -226 -277 -214 -230
-510 -451 -799 -595 -427 -213 -973 -337 -1487 -338 l-157 0 36 63 c154 265
446 659 753 1017 568 661 1495 1559 2348 2275 84 70 145 129 148 142 10 36
-20 73 -59 73 -26 0 -57 -21 -177 -121 -892 -745 -1763 -1588 -2355 -2279
-265 -309 -431 -526 -612 -800 -68 -102 -130 -194 -138 -205 -33 -42 -5 730
30 833 4 9 29 0 88 -32 46 -25 96 -46 111 -46 29 0 66 31 66 56 0 9 -32 132
-71 275 l-70 259 37 102 c53 145 195 422 286 558 142 213 353 454 514 587 l51
42 99 -144 c54 -79 109 -148 121 -154 36 -17 68 2 88 51 9 24 66 171 127 328
60 157 115 290 121 297 15 15 238 112 375 164 265 100 580 191 842 243 175 34
498 80 603 85 l27 1 0 -107z"/>
<path d="M570 110 c-11 -11 -20 -31 -20 -45 0 -14 9 -34 20 -45 18 -18 33 -20
133 -20 128 0 147 9 147 68 0 51 -27 62 -152 62 -95 0 -110 -2 -128 -20z"/>
<path d="M1232 114 c-28 -19 -30 -74 -4 -97 17 -16 130 -17 1424 -17 1348 0
1406 1 1421 18 25 27 22 78 -5 96 -20 14 -171 16 -1418 16 -1247 0 -1398 -2
-1418 -16z"/>
</g>
</svg>
